<svg width="69" height="40" viewBox="0 0 69 40" fill="none" xmlns="http://www.w3.org/2000/svg">
<path d="M4.95703 19.96L21.0947 26.1367V31.9229L0.513672 22.8408V19.0078L4.95703 19.96ZM21.0947 14.9062L4.95703 21.1807L0.513672 22.0352V18.2021L21.0947 9.14453V14.9062Z" fill="url(#paint0_linear_317_37)"/>
<path d="M42.9209 0.453125L29.0781 39.0518H24.4639L38.3311 0.453125H42.9209Z" fill="url(#paint1_linear_317_37)"/>
<path d="M63.4775 20.9365L47.0469 14.8086V9.12012L68.1406 18.1777V22.0352L63.4775 20.9365ZM47.0469 26.21L63.5264 19.96L68.1406 18.9834V22.8164L47.0469 31.8984V26.21Z" fill="url(#paint2_linear_317_37)"/>
<defs>
<linearGradient id="paint0_linear_317_37" x1="34.3271" y1="0.453125" x2="34.3271" y2="39.0518" gradientUnits="userSpaceOnUse">
<stop stop-color="#B629F8"/>
<stop offset="1" stop-color="#800ADD"/>
</linearGradient>
<linearGradient id="paint1_linear_317_37" x1="34.3271" y1="0.453125" x2="34.3271" y2="39.0518" gradientUnits="userSpaceOnUse">
<stop stop-color="#B629F8"/>
<stop offset="1" stop-color="#800ADD"/>
</linearGradient>
<linearGradient id="paint2_linear_317_37" x1="34.3271" y1="0.453125" x2="34.3271" y2="39.0518" gradientUnits="userSpaceOnUse">
<stop stop-color="#B629F8"/>
<stop offset="1" stop-color="#800ADD"/>
</linearGradient>
</defs>
</svg>
