<svg width="327" height="33" viewBox="0 0 327 33" fill="none" xmlns="http://www.w3.org/2000/svg">
<path d="M4.50781 17.4219L16.9297 21.9141V27.207L0.0546875 20.0586V16.3086L4.50781 17.4219ZM16.9297 13.75L4.48828 18.3203L0.0546875 19.375V15.625L16.9297 8.47656V13.75Z" fill="url(#paint0_linear_317_31)"/>
<path d="M33.7266 1.5625L23.2969 32.4414H19.1172L29.5469 1.5625H33.7266Z" fill="url(#paint1_linear_317_31)"/>
<path d="M49.0781 18.2031L36.5586 13.7305V8.47656L53.5703 15.625V19.3945L49.0781 18.2031ZM36.5586 21.9531L49.0977 17.3828L53.5703 16.3086V20.0586L36.5586 27.207V21.9531Z" fill="url(#paint2_linear_317_31)"/>
<path d="M89.9375 15.1367V26.4062C89.4948 26.9401 88.8112 27.5195 87.8867 28.1445C86.9622 28.7565 85.7708 29.2839 84.3125 29.7266C82.8542 30.1693 81.0898 30.3906 79.0195 30.3906C77.1836 30.3906 75.5104 30.0911 74 29.4922C72.4896 28.8802 71.1875 27.9883 70.0938 26.8164C69.013 25.6445 68.1797 24.2122 67.5938 22.5195C67.0078 20.8138 66.7148 18.8672 66.7148 16.6797V14.9023C66.7148 12.7148 66.9948 10.7682 67.5547 9.0625C68.1276 7.35677 68.9414 5.91797 69.9961 4.74609C71.0508 3.57422 72.3073 2.68229 73.7656 2.07031C75.224 1.45833 76.8451 1.15234 78.6289 1.15234C81.1029 1.15234 83.1341 1.55599 84.7227 2.36328C86.3112 3.15755 87.5221 4.26432 88.3555 5.68359C89.2018 7.08984 89.7227 8.70443 89.918 10.5273H84.2344C84.0911 9.5638 83.8177 8.72396 83.4141 8.00781C83.0104 7.29167 82.431 6.73177 81.6758 6.32812C80.9336 5.92448 79.9701 5.72266 78.7852 5.72266C77.8086 5.72266 76.9362 5.92448 76.168 6.32812C75.4128 6.71875 74.7747 7.29818 74.2539 8.06641C73.7331 8.83464 73.3359 9.78516 73.0625 10.918C72.7891 12.0508 72.6523 13.3659 72.6523 14.8633V16.6797C72.6523 18.1641 72.7956 19.4792 73.082 20.625C73.3685 21.7578 73.7917 22.7148 74.3516 23.4961C74.9245 24.2643 75.6276 24.8438 76.4609 25.2344C77.2943 25.625 78.2643 25.8203 79.3711 25.8203C80.2956 25.8203 81.0638 25.7422 81.6758 25.5859C82.3008 25.4297 82.8021 25.2409 83.1797 25.0195C83.5703 24.7852 83.8698 24.5638 84.0781 24.3555V19.3164H78.7266V15.1367H89.9375Z" fill="url(#paint3_linear_317_31)"/>
<path d="M105.719 25.2344V15.8203C105.719 15.1432 105.608 14.5638 105.387 14.082C105.165 13.5872 104.82 13.2031 104.352 12.9297C103.896 12.6562 103.303 12.5195 102.574 12.5195C101.949 12.5195 101.409 12.6302 100.953 12.8516C100.497 13.0599 100.146 13.3659 99.8984 13.7695C99.651 14.1602 99.5273 14.6224 99.5273 15.1562H93.9023C93.9023 14.2578 94.1107 13.4049 94.5273 12.5977C94.944 11.7904 95.5495 11.0807 96.3438 10.4688C97.138 9.84375 98.082 9.35547 99.1758 9.00391C100.283 8.65234 101.52 8.47656 102.887 8.47656C104.527 8.47656 105.986 8.75 107.262 9.29688C108.538 9.84375 109.54 10.6641 110.27 11.7578C111.012 12.8516 111.383 14.2188 111.383 15.8594V24.9023C111.383 26.0612 111.454 27.0117 111.598 27.7539C111.741 28.4831 111.949 29.1211 112.223 29.668V30H106.539C106.266 29.4271 106.057 28.7109 105.914 27.8516C105.784 26.9792 105.719 26.1068 105.719 25.2344ZM106.461 17.1289L106.5 20.3125H103.355C102.613 20.3125 101.969 20.3971 101.422 20.5664C100.875 20.7357 100.426 20.9766 100.074 21.2891C99.7227 21.5885 99.4622 21.9401 99.293 22.3438C99.1367 22.7474 99.0586 23.1901 99.0586 23.6719C99.0586 24.1536 99.1693 24.5898 99.3906 24.9805C99.612 25.3581 99.931 25.6576 100.348 25.8789C100.764 26.0872 101.253 26.1914 101.812 26.1914C102.659 26.1914 103.395 26.0221 104.02 25.6836C104.645 25.3451 105.126 24.9284 105.465 24.4336C105.816 23.9388 105.999 23.4701 106.012 23.0273L107.496 25.4102C107.288 25.944 107.001 26.4974 106.637 27.0703C106.285 27.6432 105.836 28.1836 105.289 28.6914C104.742 29.1862 104.085 29.5964 103.316 29.9219C102.548 30.2344 101.637 30.3906 100.582 30.3906C99.2409 30.3906 98.0234 30.1237 96.9297 29.5898C95.849 29.043 94.9896 28.2943 94.3516 27.3438C93.7266 26.3802 93.4141 25.2865 93.4141 24.0625C93.4141 22.9557 93.6224 21.9727 94.0391 21.1133C94.4557 20.2539 95.0677 19.5312 95.875 18.9453C96.6953 18.3464 97.7174 17.8971 98.9414 17.5977C100.165 17.2852 101.585 17.1289 103.199 17.1289H106.461Z" fill="url(#paint4_linear_317_31)"/>
<path d="M115.719 0H121.344V25.1562L120.777 30H115.719V0ZM134.723 19.2188V19.6289C134.723 21.2044 134.553 22.6497 134.215 23.9648C133.889 25.2799 133.382 26.4193 132.691 27.3828C132.001 28.3333 131.142 29.0755 130.113 29.6094C129.098 30.1302 127.9 30.3906 126.52 30.3906C125.23 30.3906 124.111 30.1302 123.16 29.6094C122.223 29.0885 121.435 28.3529 120.797 27.4023C120.159 26.4518 119.645 25.3385 119.254 24.0625C118.863 22.7865 118.57 21.3932 118.375 19.8828V18.9844C118.57 17.474 118.863 16.0807 119.254 14.8047C119.645 13.5286 120.159 12.4154 120.797 11.4648C121.435 10.5143 122.223 9.77865 123.16 9.25781C124.098 8.73698 125.204 8.47656 126.48 8.47656C127.874 8.47656 129.085 8.74349 130.113 9.27734C131.155 9.79818 132.014 10.5404 132.691 11.5039C133.382 12.4544 133.889 13.5872 134.215 14.9023C134.553 16.2044 134.723 17.6432 134.723 19.2188ZM129.098 19.6289V19.2188C129.098 18.3594 129.033 17.5521 128.902 16.7969C128.785 16.0286 128.577 15.3581 128.277 14.7852C127.978 14.1992 127.568 13.737 127.047 13.3984C126.539 13.0599 125.882 12.8906 125.074 12.8906C124.306 12.8906 123.655 13.0208 123.121 13.2812C122.587 13.5417 122.145 13.9062 121.793 14.375C121.454 14.8438 121.201 15.4036 121.031 16.0547C120.862 16.6927 120.758 17.3958 120.719 18.1641V20.7227C120.758 21.7513 120.927 22.6628 121.227 23.457C121.539 24.2383 122.008 24.8568 122.633 25.3125C123.271 25.7552 124.098 25.9766 125.113 25.9766C125.908 25.9766 126.565 25.8203 127.086 25.5078C127.607 25.1953 128.01 24.7526 128.297 24.1797C128.596 23.6068 128.805 22.9362 128.922 22.168C129.039 21.3867 129.098 20.5404 129.098 19.6289Z" fill="url(#paint5_linear_317_31)"/>
<path d="M143.844 13.4766V30H138.219V8.86719H143.512L143.844 13.4766ZM150.211 8.73047L150.113 13.9453C149.84 13.9062 149.508 13.8737 149.117 13.8477C148.74 13.8086 148.395 13.7891 148.082 13.7891C147.288 13.7891 146.598 13.8932 146.012 14.1016C145.439 14.2969 144.957 14.5898 144.566 14.9805C144.189 15.3711 143.902 15.8464 143.707 16.4062C143.525 16.9661 143.421 17.6042 143.395 18.3203L142.262 17.9688C142.262 16.6016 142.398 15.3451 142.672 14.1992C142.945 13.0404 143.342 12.0312 143.863 11.1719C144.397 10.3125 145.048 9.64844 145.816 9.17969C146.585 8.71094 147.464 8.47656 148.453 8.47656C148.766 8.47656 149.085 8.5026 149.41 8.55469C149.736 8.59375 150.003 8.65234 150.211 8.73047Z" fill="url(#paint6_linear_317_31)"/>
<path d="M158.805 8.86719V30H153.16V8.86719H158.805ZM152.809 3.35938C152.809 2.53906 153.095 1.86198 153.668 1.32812C154.241 0.794271 155.009 0.527344 155.973 0.527344C156.923 0.527344 157.685 0.794271 158.258 1.32812C158.844 1.86198 159.137 2.53906 159.137 3.35938C159.137 4.17969 158.844 4.85677 158.258 5.39062C157.685 5.92448 156.923 6.19141 155.973 6.19141C155.009 6.19141 154.241 5.92448 153.668 5.39062C153.095 4.85677 152.809 4.17969 152.809 3.35938Z" fill="url(#paint7_linear_317_31)"/>
<path d="M173.18 30.3906C171.539 30.3906 170.068 30.1302 168.766 29.6094C167.464 29.0755 166.357 28.3398 165.445 27.4023C164.547 26.4648 163.857 25.3776 163.375 24.1406C162.893 22.8906 162.652 21.5625 162.652 20.1562V19.375C162.652 17.7734 162.88 16.3086 163.336 14.9805C163.792 13.6523 164.443 12.5 165.289 11.5234C166.148 10.5469 167.19 9.79818 168.414 9.27734C169.638 8.74349 171.018 8.47656 172.555 8.47656C174.052 8.47656 175.38 8.72396 176.539 9.21875C177.698 9.71354 178.668 10.4167 179.449 11.3281C180.243 12.2396 180.842 13.3333 181.246 14.6094C181.65 15.8724 181.852 17.2786 181.852 18.8281V21.1719H165.055V17.4219H176.324V16.9922C176.324 16.2109 176.181 15.5143 175.895 14.9023C175.621 14.2773 175.204 13.7826 174.645 13.418C174.085 13.0534 173.368 12.8711 172.496 12.8711C171.754 12.8711 171.116 13.0339 170.582 13.3594C170.048 13.6849 169.612 14.1406 169.273 14.7266C168.948 15.3125 168.701 16.0026 168.531 16.7969C168.375 17.5781 168.297 18.4375 168.297 19.375V20.1562C168.297 21.0026 168.414 21.7839 168.648 22.5C168.896 23.2161 169.241 23.8346 169.684 24.3555C170.139 24.8763 170.686 25.2799 171.324 25.5664C171.975 25.8529 172.711 25.9961 173.531 25.9961C174.547 25.9961 175.491 25.8008 176.363 25.4102C177.249 25.0065 178.01 24.401 178.648 23.5938L181.383 26.5625C180.94 27.2005 180.335 27.8125 179.566 28.3984C178.811 28.9844 177.9 29.4661 176.832 29.8438C175.764 30.2083 174.547 30.3906 173.18 30.3906Z" fill="url(#paint8_linear_317_31)"/>
<path d="M190.992 0V30H185.348V0H190.992Z" fill="url(#paint9_linear_317_31)"/>
<path d="M220.758 22.5586C220.758 22.0508 220.68 21.5951 220.523 21.1914C220.38 20.7747 220.107 20.3971 219.703 20.0586C219.299 19.707 218.733 19.362 218.004 19.0234C217.275 18.6849 216.331 18.3333 215.172 17.9688C213.883 17.5521 212.659 17.0833 211.5 16.5625C210.354 16.0417 209.339 15.4362 208.453 14.7461C207.581 14.043 206.891 13.2292 206.383 12.3047C205.888 11.3802 205.641 10.306 205.641 9.08203C205.641 7.89714 205.901 6.82292 206.422 5.85938C206.943 4.88281 207.672 4.04948 208.609 3.35938C209.547 2.65625 210.654 2.11589 211.93 1.73828C213.219 1.36068 214.632 1.17188 216.168 1.17188C218.264 1.17188 220.094 1.54948 221.656 2.30469C223.219 3.0599 224.43 4.09505 225.289 5.41016C226.161 6.72526 226.598 8.22917 226.598 9.92188H220.777C220.777 9.08854 220.602 8.35938 220.25 7.73438C219.911 7.09635 219.391 6.59505 218.688 6.23047C217.997 5.86589 217.125 5.68359 216.07 5.68359C215.055 5.68359 214.208 5.83984 213.531 6.15234C212.854 6.45182 212.346 6.86198 212.008 7.38281C211.669 7.89062 211.5 8.46354 211.5 9.10156C211.5 9.58333 211.617 10.0195 211.852 10.4102C212.099 10.8008 212.464 11.1654 212.945 11.5039C213.427 11.8424 214.02 12.1615 214.723 12.4609C215.426 12.7604 216.24 13.0534 217.164 13.3398C218.714 13.8086 220.074 14.3359 221.246 14.9219C222.431 15.5078 223.421 16.1654 224.215 16.8945C225.009 17.6237 225.608 18.4505 226.012 19.375C226.415 20.2995 226.617 21.3477 226.617 22.5195C226.617 23.7565 226.376 24.8633 225.895 25.8398C225.413 26.8164 224.716 27.6432 223.805 28.3203C222.893 28.9974 221.806 29.5117 220.543 29.8633C219.28 30.2148 217.867 30.3906 216.305 30.3906C214.898 30.3906 213.512 30.2083 212.145 29.8438C210.777 29.4661 209.534 28.8997 208.414 28.1445C207.307 27.3893 206.422 26.4258 205.758 25.2539C205.094 24.082 204.762 22.6953 204.762 21.0938H210.641C210.641 21.9792 210.777 22.7279 211.051 23.3398C211.324 23.9518 211.708 24.4466 212.203 24.8242C212.711 25.2018 213.31 25.4753 214 25.6445C214.703 25.8138 215.471 25.8984 216.305 25.8984C217.32 25.8984 218.154 25.7552 218.805 25.4688C219.469 25.1823 219.957 24.7852 220.27 24.2773C220.595 23.7695 220.758 23.1966 220.758 22.5586Z" fill="url(#paint10_linear_317_31)"/>
<path d="M229.352 19.6484V19.2383C229.352 17.6888 229.573 16.263 230.016 14.9609C230.458 13.6458 231.103 12.5065 231.949 11.543C232.796 10.5794 233.837 9.83073 235.074 9.29688C236.311 8.75 237.73 8.47656 239.332 8.47656C240.934 8.47656 242.359 8.75 243.609 9.29688C244.859 9.83073 245.908 10.5794 246.754 11.543C247.613 12.5065 248.264 13.6458 248.707 14.9609C249.15 16.263 249.371 17.6888 249.371 19.2383V19.6484C249.371 21.1849 249.15 22.6107 248.707 23.9258C248.264 25.2279 247.613 26.3672 246.754 27.3438C245.908 28.3073 244.866 29.056 243.629 29.5898C242.392 30.1237 240.973 30.3906 239.371 30.3906C237.77 30.3906 236.344 30.1237 235.094 29.5898C233.857 29.056 232.809 28.3073 231.949 27.3438C231.103 26.3672 230.458 25.2279 230.016 23.9258C229.573 22.6107 229.352 21.1849 229.352 19.6484ZM234.977 19.2383V19.6484C234.977 20.5339 235.055 21.3607 235.211 22.1289C235.367 22.8971 235.615 23.5742 235.953 24.1602C236.305 24.7331 236.76 25.1823 237.32 25.5078C237.88 25.8333 238.564 25.9961 239.371 25.9961C240.152 25.9961 240.823 25.8333 241.383 25.5078C241.943 25.1823 242.392 24.7331 242.73 24.1602C243.069 23.5742 243.316 22.8971 243.473 22.1289C243.642 21.3607 243.727 20.5339 243.727 19.6484V19.2383C243.727 18.3789 243.642 17.5716 243.473 16.8164C243.316 16.0482 243.062 15.3711 242.711 14.7852C242.372 14.1862 241.923 13.7174 241.363 13.3789C240.803 13.0404 240.126 12.8711 239.332 12.8711C238.538 12.8711 237.861 13.0404 237.301 13.3789C236.754 13.7174 236.305 14.1862 235.953 14.7852C235.615 15.3711 235.367 16.0482 235.211 16.8164C235.055 17.5716 234.977 18.3789 234.977 19.2383Z" fill="url(#paint11_linear_317_31)"/>
<path d="M264.234 25.2344V15.8203C264.234 15.1432 264.124 14.5638 263.902 14.082C263.681 13.5872 263.336 13.2031 262.867 12.9297C262.411 12.6562 261.819 12.5195 261.09 12.5195C260.465 12.5195 259.924 12.6302 259.469 12.8516C259.013 13.0599 258.661 13.3659 258.414 13.7695C258.167 14.1602 258.043 14.6224 258.043 15.1562H252.418C252.418 14.2578 252.626 13.4049 253.043 12.5977C253.46 11.7904 254.065 11.0807 254.859 10.4688C255.654 9.84375 256.598 9.35547 257.691 9.00391C258.798 8.65234 260.035 8.47656 261.402 8.47656C263.043 8.47656 264.501 8.75 265.777 9.29688C267.053 9.84375 268.056 10.6641 268.785 11.7578C269.527 12.8516 269.898 14.2188 269.898 15.8594V24.9023C269.898 26.0612 269.97 27.0117 270.113 27.7539C270.257 28.4831 270.465 29.1211 270.738 29.668V30H265.055C264.781 29.4271 264.573 28.7109 264.43 27.8516C264.299 26.9792 264.234 26.1068 264.234 25.2344ZM264.977 17.1289L265.016 20.3125H261.871C261.129 20.3125 260.484 20.3971 259.938 20.5664C259.391 20.7357 258.941 20.9766 258.59 21.2891C258.238 21.5885 257.978 21.9401 257.809 22.3438C257.652 22.7474 257.574 23.1901 257.574 23.6719C257.574 24.1536 257.685 24.5898 257.906 24.9805C258.128 25.3581 258.447 25.6576 258.863 25.8789C259.28 26.0872 259.768 26.1914 260.328 26.1914C261.174 26.1914 261.91 26.0221 262.535 25.6836C263.16 25.3451 263.642 24.9284 263.98 24.4336C264.332 23.9388 264.514 23.4701 264.527 23.0273L266.012 25.4102C265.803 25.944 265.517 26.4974 265.152 27.0703C264.801 27.6432 264.352 28.1836 263.805 28.6914C263.258 29.1862 262.6 29.5964 261.832 29.9219C261.064 30.2344 260.152 30.3906 259.098 30.3906C257.757 30.3906 256.539 30.1237 255.445 29.5898C254.365 29.043 253.505 28.2943 252.867 27.3438C252.242 26.3802 251.93 25.2865 251.93 24.0625C251.93 22.9557 252.138 21.9727 252.555 21.1133C252.971 20.2539 253.583 19.5312 254.391 18.9453C255.211 18.3464 256.233 17.8971 257.457 17.5977C258.681 17.2852 260.1 17.1289 261.715 17.1289H264.977Z" fill="url(#paint12_linear_317_31)"/>
<path d="M279.859 13.4766V30H274.234V8.86719H279.527L279.859 13.4766ZM286.227 8.73047L286.129 13.9453C285.855 13.9062 285.523 13.8737 285.133 13.8477C284.755 13.8086 284.41 13.7891 284.098 13.7891C283.303 13.7891 282.613 13.8932 282.027 14.1016C281.454 14.2969 280.973 14.5898 280.582 14.9805C280.204 15.3711 279.918 15.8464 279.723 16.4062C279.54 16.9661 279.436 17.6042 279.41 18.3203L278.277 17.9688C278.277 16.6016 278.414 15.3451 278.688 14.1992C278.961 13.0404 279.358 12.0312 279.879 11.1719C280.413 10.3125 281.064 9.64844 281.832 9.17969C282.6 8.71094 283.479 8.47656 284.469 8.47656C284.781 8.47656 285.1 8.5026 285.426 8.55469C285.751 8.59375 286.018 8.65234 286.227 8.73047Z" fill="url(#paint13_linear_317_31)"/>
<path d="M298.219 30.3906C296.578 30.3906 295.107 30.1302 293.805 29.6094C292.503 29.0755 291.396 28.3398 290.484 27.4023C289.586 26.4648 288.896 25.3776 288.414 24.1406C287.932 22.8906 287.691 21.5625 287.691 20.1562V19.375C287.691 17.7734 287.919 16.3086 288.375 14.9805C288.831 13.6523 289.482 12.5 290.328 11.5234C291.188 10.5469 292.229 9.79818 293.453 9.27734C294.677 8.74349 296.057 8.47656 297.594 8.47656C299.091 8.47656 300.419 8.72396 301.578 9.21875C302.737 9.71354 303.707 10.4167 304.488 11.3281C305.283 12.2396 305.882 13.3333 306.285 14.6094C306.689 15.8724 306.891 17.2786 306.891 18.8281V21.1719H290.094V17.4219H301.363V16.9922C301.363 16.2109 301.22 15.5143 300.934 14.9023C300.66 14.2773 300.243 13.7826 299.684 13.418C299.124 13.0534 298.408 12.8711 297.535 12.8711C296.793 12.8711 296.155 13.0339 295.621 13.3594C295.087 13.6849 294.651 14.1406 294.312 14.7266C293.987 15.3125 293.74 16.0026 293.57 16.7969C293.414 17.5781 293.336 18.4375 293.336 19.375V20.1562C293.336 21.0026 293.453 21.7839 293.688 22.5C293.935 23.2161 294.28 23.8346 294.723 24.3555C295.178 24.8763 295.725 25.2799 296.363 25.5664C297.014 25.8529 297.75 25.9961 298.57 25.9961C299.586 25.9961 300.53 25.8008 301.402 25.4102C302.288 25.0065 303.049 24.401 303.688 23.5938L306.422 26.5625C305.979 27.2005 305.374 27.8125 304.605 28.3984C303.85 28.9844 302.939 29.4661 301.871 29.8438C300.803 30.2083 299.586 30.3906 298.219 30.3906Z" fill="url(#paint14_linear_317_31)"/>
<path d="M321.52 24.1602C321.52 23.7565 321.402 23.3919 321.168 23.0664C320.934 22.7409 320.497 22.4414 319.859 22.168C319.234 21.8815 318.329 21.6211 317.145 21.3867C316.077 21.1523 315.081 20.8594 314.156 20.5078C313.245 20.1432 312.451 19.707 311.773 19.1992C311.109 18.6914 310.589 18.0924 310.211 17.4023C309.833 16.6992 309.645 15.8984 309.645 15C309.645 14.1146 309.833 13.2812 310.211 12.5C310.602 11.7188 311.155 11.0286 311.871 10.4297C312.6 9.81771 313.486 9.34245 314.527 9.00391C315.582 8.65234 316.767 8.47656 318.082 8.47656C319.918 8.47656 321.493 8.76953 322.809 9.35547C324.137 9.94141 325.152 10.7487 325.855 11.7773C326.572 12.793 326.93 13.9518 326.93 15.2539H321.305C321.305 14.707 321.188 14.2188 320.953 13.7891C320.732 13.3464 320.38 13.0013 319.898 12.7539C319.43 12.4935 318.818 12.3633 318.062 12.3633C317.438 12.3633 316.897 12.474 316.441 12.6953C315.986 12.9036 315.634 13.1901 315.387 13.5547C315.152 13.9062 315.035 14.2969 315.035 14.7266C315.035 15.0521 315.1 15.3451 315.23 15.6055C315.374 15.8529 315.602 16.0807 315.914 16.2891C316.227 16.4974 316.63 16.6927 317.125 16.875C317.633 17.0443 318.258 17.2005 319 17.3438C320.523 17.6562 321.884 18.0664 323.082 18.5742C324.28 19.069 325.23 19.7461 325.934 20.6055C326.637 21.4518 326.988 22.5651 326.988 23.9453C326.988 24.8828 326.78 25.7422 326.363 26.5234C325.947 27.3047 325.348 27.9883 324.566 28.5742C323.785 29.1471 322.848 29.5964 321.754 29.9219C320.673 30.2344 319.456 30.3906 318.102 30.3906C316.135 30.3906 314.469 30.0391 313.102 29.3359C311.747 28.6328 310.719 27.7409 310.016 26.6602C309.326 25.5664 308.98 24.4466 308.98 23.3008H314.312C314.339 24.069 314.534 24.6875 314.898 25.1562C315.276 25.625 315.751 25.9635 316.324 26.1719C316.91 26.3802 317.542 26.4844 318.219 26.4844C318.948 26.4844 319.553 26.3867 320.035 26.1914C320.517 25.9831 320.882 25.7096 321.129 25.3711C321.389 25.0195 321.52 24.6159 321.52 24.1602Z" fill="url(#paint15_linear_317_31)"/>
<defs>
<linearGradient id="paint0_linear_317_31" x1="163.521" y1="0" x2="163.521" y2="32.4414" gradientUnits="userSpaceOnUse">
<stop stop-color="#B629F8"/>
<stop offset="1" stop-color="#800ADD"/>
</linearGradient>
<linearGradient id="paint1_linear_317_31" x1="163.521" y1="0" x2="163.521" y2="32.4414" gradientUnits="userSpaceOnUse">
<stop stop-color="#B629F8"/>
<stop offset="1" stop-color="#800ADD"/>
</linearGradient>
<linearGradient id="paint2_linear_317_31" x1="163.521" y1="0" x2="163.521" y2="32.4414" gradientUnits="userSpaceOnUse">
<stop stop-color="#B629F8"/>
<stop offset="1" stop-color="#800ADD"/>
</linearGradient>
<linearGradient id="paint3_linear_317_31" x1="163.521" y1="0" x2="163.521" y2="32.4414" gradientUnits="userSpaceOnUse">
<stop stop-color="#B629F8"/>
<stop offset="1" stop-color="#800ADD"/>
</linearGradient>
<linearGradient id="paint4_linear_317_31" x1="163.521" y1="0" x2="163.521" y2="32.4414" gradientUnits="userSpaceOnUse">
<stop stop-color="#B629F8"/>
<stop offset="1" stop-color="#800ADD"/>
</linearGradient>
<linearGradient id="paint5_linear_317_31" x1="163.521" y1="0" x2="163.521" y2="32.4414" gradientUnits="userSpaceOnUse">
<stop stop-color="#B629F8"/>
<stop offset="1" stop-color="#800ADD"/>
</linearGradient>
<linearGradient id="paint6_linear_317_31" x1="163.521" y1="0" x2="163.521" y2="32.4414" gradientUnits="userSpaceOnUse">
<stop stop-color="#B629F8"/>
<stop offset="1" stop-color="#800ADD"/>
</linearGradient>
<linearGradient id="paint7_linear_317_31" x1="163.521" y1="0" x2="163.521" y2="32.4414" gradientUnits="userSpaceOnUse">
<stop stop-color="#B629F8"/>
<stop offset="1" stop-color="#800ADD"/>
</linearGradient>
<linearGradient id="paint8_linear_317_31" x1="163.521" y1="0" x2="163.521" y2="32.4414" gradientUnits="userSpaceOnUse">
<stop stop-color="#B629F8"/>
<stop offset="1" stop-color="#800ADD"/>
</linearGradient>
<linearGradient id="paint9_linear_317_31" x1="163.521" y1="0" x2="163.521" y2="32.4414" gradientUnits="userSpaceOnUse">
<stop stop-color="#B629F8"/>
<stop offset="1" stop-color="#800ADD"/>
</linearGradient>
<linearGradient id="paint10_linear_317_31" x1="163.521" y1="0" x2="163.521" y2="32.4414" gradientUnits="userSpaceOnUse">
<stop stop-color="#B629F8"/>
<stop offset="1" stop-color="#800ADD"/>
</linearGradient>
<linearGradient id="paint11_linear_317_31" x1="163.521" y1="0" x2="163.521" y2="32.4414" gradientUnits="userSpaceOnUse">
<stop stop-color="#B629F8"/>
<stop offset="1" stop-color="#800ADD"/>
</linearGradient>
<linearGradient id="paint12_linear_317_31" x1="163.521" y1="0" x2="163.521" y2="32.4414" gradientUnits="userSpaceOnUse">
<stop stop-color="#B629F8"/>
<stop offset="1" stop-color="#800ADD"/>
</linearGradient>
<linearGradient id="paint13_linear_317_31" x1="163.521" y1="0" x2="163.521" y2="32.4414" gradientUnits="userSpaceOnUse">
<stop stop-color="#B629F8"/>
<stop offset="1" stop-color="#800ADD"/>
</linearGradient>
<linearGradient id="paint14_linear_317_31" x1="163.521" y1="0" x2="163.521" y2="32.4414" gradientUnits="userSpaceOnUse">
<stop stop-color="#B629F8"/>
<stop offset="1" stop-color="#800ADD"/>
</linearGradient>
<linearGradient id="paint15_linear_317_31" x1="163.521" y1="0" x2="163.521" y2="32.4414" gradientUnits="userSpaceOnUse">
<stop stop-color="#B629F8"/>
<stop offset="1" stop-color="#800ADD"/>
</linearGradient>
</defs>
</svg>
